<mxfile host="app.diagrams.net" agent="Mozilla/5.0 (Windows NT 10.0; Win64; x64) AppleWebKit/537.36 (KHTML, like Gecko) Chrome/131.0.0.0 Safari/537.36" version="24.8.4">
  <diagram name="Page-1" id="0783ab3e-0a74-02c8-0abd-f7b4e66b4bec">
    <mxGraphModel dx="1120" dy="466" grid="1" gridSize="10" guides="1" tooltips="1" connect="1" arrows="1" fold="1" page="1" pageScale="1" pageWidth="850" pageHeight="1100" background="none" math="0" shadow="0">
      <root>
        <mxCell id="0" />
        <mxCell id="1" parent="0" />
        <mxCell id="1c1d494c118603dd-1" value="University" style="swimlane;html=1;childLayout=stackLayout;startSize=20;rounded=0;shadow=0;comic=0;labelBackgroundColor=none;strokeWidth=1;fontFamily=Verdana;fontSize=12;align=center;" parent="1" vertex="1">
          <mxGeometry x="40" y="20" width="500" height="1030" as="geometry" />
        </mxCell>
        <mxCell id="1c1d494c118603dd-2" value="Student" style="swimlane;html=1;startSize=20;" parent="1c1d494c118603dd-1" vertex="1">
          <mxGeometry y="20" width="250" height="1010" as="geometry" />
        </mxCell>
        <mxCell id="XsLnpEFhyd-dqSqakE4T-3" value="Login (Student_ID and Password)" style="rounded=1;whiteSpace=wrap;html=1;" vertex="1" parent="1c1d494c118603dd-2">
          <mxGeometry x="65" y="40" width="120" height="60" as="geometry" />
        </mxCell>
        <mxCell id="XsLnpEFhyd-dqSqakE4T-13" value="View Available courses" style="rounded=1;whiteSpace=wrap;html=1;" vertex="1" parent="1c1d494c118603dd-2">
          <mxGeometry x="50" y="290" width="120" height="60" as="geometry" />
        </mxCell>
        <mxCell id="XsLnpEFhyd-dqSqakE4T-24" style="edgeStyle=orthogonalEdgeStyle;rounded=0;orthogonalLoop=1;jettySize=auto;html=1;exitX=0.5;exitY=1;exitDx=0;exitDy=0;entryX=0.5;entryY=0;entryDx=0;entryDy=0;" edge="1" parent="1c1d494c118603dd-2" source="XsLnpEFhyd-dqSqakE4T-19" target="XsLnpEFhyd-dqSqakE4T-23">
          <mxGeometry relative="1" as="geometry" />
        </mxCell>
        <mxCell id="XsLnpEFhyd-dqSqakE4T-19" value="Search Courses" style="rounded=1;whiteSpace=wrap;html=1;" vertex="1" parent="1c1d494c118603dd-2">
          <mxGeometry x="50" y="540" width="120" height="60" as="geometry" />
        </mxCell>
        <mxCell id="XsLnpEFhyd-dqSqakE4T-23" value="Select Course" style="rounded=1;whiteSpace=wrap;html=1;" vertex="1" parent="1c1d494c118603dd-2">
          <mxGeometry x="50" y="660" width="120" height="60" as="geometry" />
        </mxCell>
        <mxCell id="1c1d494c118603dd-3" value="System" style="swimlane;html=1;startSize=20;" parent="1c1d494c118603dd-1" vertex="1">
          <mxGeometry x="250" y="20" width="250" height="1010" as="geometry" />
        </mxCell>
        <mxCell id="XsLnpEFhyd-dqSqakE4T-8" style="edgeStyle=orthogonalEdgeStyle;rounded=0;orthogonalLoop=1;jettySize=auto;html=1;" edge="1" parent="1c1d494c118603dd-3" source="XsLnpEFhyd-dqSqakE4T-5" target="XsLnpEFhyd-dqSqakE4T-7">
          <mxGeometry relative="1" as="geometry" />
        </mxCell>
        <mxCell id="XsLnpEFhyd-dqSqakE4T-5" value="Verification" style="rounded=1;whiteSpace=wrap;html=1;" vertex="1" parent="1c1d494c118603dd-3">
          <mxGeometry x="65" y="100" width="120" height="60" as="geometry" />
        </mxCell>
        <mxCell id="XsLnpEFhyd-dqSqakE4T-11" style="edgeStyle=orthogonalEdgeStyle;rounded=0;orthogonalLoop=1;jettySize=auto;html=1;exitX=1;exitY=0.5;exitDx=0;exitDy=0;entryX=0.5;entryY=0;entryDx=0;entryDy=0;" edge="1" parent="1c1d494c118603dd-3" source="XsLnpEFhyd-dqSqakE4T-7" target="XsLnpEFhyd-dqSqakE4T-9">
          <mxGeometry relative="1" as="geometry" />
        </mxCell>
        <mxCell id="XsLnpEFhyd-dqSqakE4T-12" value="No" style="edgeLabel;html=1;align=center;verticalAlign=middle;resizable=0;points=[];" vertex="1" connectable="0" parent="XsLnpEFhyd-dqSqakE4T-11">
          <mxGeometry x="-0.7" y="2" relative="1" as="geometry">
            <mxPoint as="offset" />
          </mxGeometry>
        </mxCell>
        <mxCell id="XsLnpEFhyd-dqSqakE4T-7" value="" style="rhombus;whiteSpace=wrap;html=1;" vertex="1" parent="1c1d494c118603dd-3">
          <mxGeometry x="80" y="230" width="80" height="80" as="geometry" />
        </mxCell>
        <mxCell id="XsLnpEFhyd-dqSqakE4T-17" style="edgeStyle=orthogonalEdgeStyle;rounded=0;orthogonalLoop=1;jettySize=auto;html=1;exitX=0.5;exitY=1;exitDx=0;exitDy=0;entryX=1;entryY=0.5;entryDx=0;entryDy=0;" edge="1" parent="1c1d494c118603dd-3" source="XsLnpEFhyd-dqSqakE4T-9" target="XsLnpEFhyd-dqSqakE4T-16">
          <mxGeometry relative="1" as="geometry" />
        </mxCell>
        <mxCell id="XsLnpEFhyd-dqSqakE4T-9" value="Login Again" style="rounded=1;whiteSpace=wrap;html=1;" vertex="1" parent="1c1d494c118603dd-3">
          <mxGeometry x="120" y="330" width="120" height="60" as="geometry" />
        </mxCell>
        <mxCell id="XsLnpEFhyd-dqSqakE4T-22" style="edgeStyle=orthogonalEdgeStyle;rounded=0;orthogonalLoop=1;jettySize=auto;html=1;exitX=1;exitY=1;exitDx=0;exitDy=0;entryX=0.5;entryY=0;entryDx=0;entryDy=0;" edge="1" parent="1c1d494c118603dd-3" source="XsLnpEFhyd-dqSqakE4T-16" target="XsLnpEFhyd-dqSqakE4T-20">
          <mxGeometry relative="1" as="geometry" />
        </mxCell>
        <mxCell id="XsLnpEFhyd-dqSqakE4T-16" value="" style="rhombus;whiteSpace=wrap;html=1;" vertex="1" parent="1c1d494c118603dd-3">
          <mxGeometry x="30" y="410" width="80" height="80" as="geometry" />
        </mxCell>
        <mxCell id="XsLnpEFhyd-dqSqakE4T-20" value="Display Courses" style="rounded=1;whiteSpace=wrap;html=1;" vertex="1" parent="1c1d494c118603dd-3">
          <mxGeometry x="65" y="540" width="120" height="60" as="geometry" />
        </mxCell>
        <mxCell id="XsLnpEFhyd-dqSqakE4T-29" style="edgeStyle=orthogonalEdgeStyle;rounded=0;orthogonalLoop=1;jettySize=auto;html=1;exitX=0.5;exitY=1;exitDx=0;exitDy=0;entryX=0.5;entryY=0;entryDx=0;entryDy=0;" edge="1" parent="1c1d494c118603dd-3" source="XsLnpEFhyd-dqSqakE4T-26" target="XsLnpEFhyd-dqSqakE4T-28">
          <mxGeometry relative="1" as="geometry" />
        </mxCell>
        <mxCell id="XsLnpEFhyd-dqSqakE4T-26" value="Check Prerequisits" style="rounded=1;whiteSpace=wrap;html=1;" vertex="1" parent="1c1d494c118603dd-3">
          <mxGeometry x="60" y="720" width="120" height="60" as="geometry" />
        </mxCell>
        <mxCell id="XsLnpEFhyd-dqSqakE4T-32" style="edgeStyle=orthogonalEdgeStyle;rounded=0;orthogonalLoop=1;jettySize=auto;html=1;exitX=0.5;exitY=1;exitDx=0;exitDy=0;entryX=0.5;entryY=0;entryDx=0;entryDy=0;" edge="1" parent="1c1d494c118603dd-3" source="XsLnpEFhyd-dqSqakE4T-28" target="XsLnpEFhyd-dqSqakE4T-31">
          <mxGeometry relative="1" as="geometry" />
        </mxCell>
        <mxCell id="XsLnpEFhyd-dqSqakE4T-28" value="Validation" style="rounded=1;whiteSpace=wrap;html=1;" vertex="1" parent="1c1d494c118603dd-3">
          <mxGeometry x="60" y="820" width="120" height="60" as="geometry" />
        </mxCell>
        <mxCell id="XsLnpEFhyd-dqSqakE4T-37" style="edgeStyle=orthogonalEdgeStyle;rounded=0;orthogonalLoop=1;jettySize=auto;html=1;exitX=0;exitY=0.5;exitDx=0;exitDy=0;" edge="1" parent="1c1d494c118603dd-3" source="XsLnpEFhyd-dqSqakE4T-31">
          <mxGeometry relative="1" as="geometry">
            <mxPoint x="50" y="970" as="targetPoint" />
          </mxGeometry>
        </mxCell>
        <mxCell id="XsLnpEFhyd-dqSqakE4T-31" value="" style="rhombus;whiteSpace=wrap;html=1;" vertex="1" parent="1c1d494c118603dd-3">
          <mxGeometry x="85" y="930" width="80" height="80" as="geometry" />
        </mxCell>
        <mxCell id="XsLnpEFhyd-dqSqakE4T-36" value="" style="shape=ellipse;fillColor=#0065FF;strokeColor=none;html=1;sketch=0;" vertex="1" parent="1c1d494c118603dd-3">
          <mxGeometry x="30" y="965" width="10" height="10" as="geometry" />
        </mxCell>
        <mxCell id="XsLnpEFhyd-dqSqakE4T-6" style="edgeStyle=orthogonalEdgeStyle;rounded=0;orthogonalLoop=1;jettySize=auto;html=1;entryX=0.5;entryY=0;entryDx=0;entryDy=0;" edge="1" parent="1c1d494c118603dd-1" source="XsLnpEFhyd-dqSqakE4T-3" target="XsLnpEFhyd-dqSqakE4T-5">
          <mxGeometry relative="1" as="geometry" />
        </mxCell>
        <mxCell id="XsLnpEFhyd-dqSqakE4T-14" style="edgeStyle=orthogonalEdgeStyle;rounded=0;orthogonalLoop=1;jettySize=auto;html=1;exitX=0;exitY=0.5;exitDx=0;exitDy=0;entryX=0.5;entryY=0;entryDx=0;entryDy=0;" edge="1" parent="1c1d494c118603dd-1" source="XsLnpEFhyd-dqSqakE4T-7" target="XsLnpEFhyd-dqSqakE4T-13">
          <mxGeometry relative="1" as="geometry" />
        </mxCell>
        <mxCell id="XsLnpEFhyd-dqSqakE4T-15" value="Yes" style="edgeLabel;html=1;align=center;verticalAlign=middle;resizable=0;points=[];" vertex="1" connectable="0" parent="XsLnpEFhyd-dqSqakE4T-14">
          <mxGeometry x="-0.7667" y="1" relative="1" as="geometry">
            <mxPoint as="offset" />
          </mxGeometry>
        </mxCell>
        <mxCell id="XsLnpEFhyd-dqSqakE4T-18" style="edgeStyle=orthogonalEdgeStyle;rounded=0;orthogonalLoop=1;jettySize=auto;html=1;exitX=0.5;exitY=1;exitDx=0;exitDy=0;entryX=0;entryY=0.5;entryDx=0;entryDy=0;" edge="1" parent="1c1d494c118603dd-1" source="XsLnpEFhyd-dqSqakE4T-13" target="XsLnpEFhyd-dqSqakE4T-16">
          <mxGeometry relative="1" as="geometry" />
        </mxCell>
        <mxCell id="XsLnpEFhyd-dqSqakE4T-21" style="edgeStyle=orthogonalEdgeStyle;rounded=0;orthogonalLoop=1;jettySize=auto;html=1;exitX=0.5;exitY=1;exitDx=0;exitDy=0;entryX=0.5;entryY=0;entryDx=0;entryDy=0;" edge="1" parent="1c1d494c118603dd-1" source="XsLnpEFhyd-dqSqakE4T-16" target="XsLnpEFhyd-dqSqakE4T-19">
          <mxGeometry relative="1" as="geometry" />
        </mxCell>
        <mxCell id="XsLnpEFhyd-dqSqakE4T-25" style="edgeStyle=orthogonalEdgeStyle;rounded=0;orthogonalLoop=1;jettySize=auto;html=1;exitX=0.5;exitY=1;exitDx=0;exitDy=0;entryX=0.5;entryY=0;entryDx=0;entryDy=0;" edge="1" parent="1c1d494c118603dd-1" source="XsLnpEFhyd-dqSqakE4T-20" target="XsLnpEFhyd-dqSqakE4T-23">
          <mxGeometry relative="1" as="geometry" />
        </mxCell>
        <mxCell id="XsLnpEFhyd-dqSqakE4T-27" style="edgeStyle=orthogonalEdgeStyle;rounded=0;orthogonalLoop=1;jettySize=auto;html=1;exitX=1;exitY=0.5;exitDx=0;exitDy=0;entryX=0.5;entryY=0;entryDx=0;entryDy=0;" edge="1" parent="1c1d494c118603dd-1" source="XsLnpEFhyd-dqSqakE4T-23" target="XsLnpEFhyd-dqSqakE4T-26">
          <mxGeometry relative="1" as="geometry" />
        </mxCell>
        <mxCell id="XsLnpEFhyd-dqSqakE4T-4" style="edgeStyle=orthogonalEdgeStyle;rounded=0;orthogonalLoop=1;jettySize=auto;html=1;entryX=0;entryY=0.5;entryDx=0;entryDy=0;" edge="1" parent="1" source="XsLnpEFhyd-dqSqakE4T-2" target="XsLnpEFhyd-dqSqakE4T-3">
          <mxGeometry relative="1" as="geometry" />
        </mxCell>
        <mxCell id="XsLnpEFhyd-dqSqakE4T-2" value="" style="shape=ellipse;fillColor=#0065FF;strokeColor=none;html=1;sketch=0;" vertex="1" parent="1">
          <mxGeometry x="10" y="90" width="10" height="10" as="geometry" />
        </mxCell>
        <mxCell id="XsLnpEFhyd-dqSqakE4T-44" style="edgeStyle=orthogonalEdgeStyle;rounded=0;orthogonalLoop=1;jettySize=auto;html=1;exitX=0.5;exitY=1;exitDx=0;exitDy=0;" edge="1" parent="1" source="XsLnpEFhyd-dqSqakE4T-33" target="XsLnpEFhyd-dqSqakE4T-43">
          <mxGeometry relative="1" as="geometry" />
        </mxCell>
        <mxCell id="XsLnpEFhyd-dqSqakE4T-33" value="Enroll in Course" style="rounded=1;whiteSpace=wrap;html=1;" vertex="1" parent="1">
          <mxGeometry x="410" y="1080" width="120" height="60" as="geometry" />
        </mxCell>
        <mxCell id="XsLnpEFhyd-dqSqakE4T-34" style="edgeStyle=orthogonalEdgeStyle;rounded=0;orthogonalLoop=1;jettySize=auto;html=1;exitX=1;exitY=0.5;exitDx=0;exitDy=0;entryX=0.5;entryY=0;entryDx=0;entryDy=0;" edge="1" parent="1" source="XsLnpEFhyd-dqSqakE4T-31" target="XsLnpEFhyd-dqSqakE4T-33">
          <mxGeometry relative="1" as="geometry" />
        </mxCell>
        <mxCell id="XsLnpEFhyd-dqSqakE4T-39" value="Yes" style="edgeLabel;html=1;align=center;verticalAlign=middle;resizable=0;points=[];" vertex="1" connectable="0" parent="XsLnpEFhyd-dqSqakE4T-34">
          <mxGeometry x="-0.8526" y="3" relative="1" as="geometry">
            <mxPoint as="offset" />
          </mxGeometry>
        </mxCell>
        <mxCell id="XsLnpEFhyd-dqSqakE4T-38" value="No" style="text;html=1;align=center;verticalAlign=middle;resizable=0;points=[];autosize=1;strokeColor=none;fillColor=none;" vertex="1" parent="1">
          <mxGeometry x="340" y="978" width="40" height="30" as="geometry" />
        </mxCell>
        <mxCell id="XsLnpEFhyd-dqSqakE4T-47" style="edgeStyle=orthogonalEdgeStyle;rounded=0;orthogonalLoop=1;jettySize=auto;html=1;exitX=0;exitY=0.5;exitDx=0;exitDy=0;exitPerimeter=0;entryX=0.5;entryY=0;entryDx=0;entryDy=0;" edge="1" parent="1" source="XsLnpEFhyd-dqSqakE4T-43" target="XsLnpEFhyd-dqSqakE4T-45">
          <mxGeometry relative="1" as="geometry" />
        </mxCell>
        <mxCell id="XsLnpEFhyd-dqSqakE4T-48" style="edgeStyle=orthogonalEdgeStyle;rounded=0;orthogonalLoop=1;jettySize=auto;html=1;exitX=1;exitY=0.5;exitDx=0;exitDy=0;exitPerimeter=0;" edge="1" parent="1" source="XsLnpEFhyd-dqSqakE4T-43" target="XsLnpEFhyd-dqSqakE4T-46">
          <mxGeometry relative="1" as="geometry" />
        </mxCell>
        <mxCell id="XsLnpEFhyd-dqSqakE4T-43" value="" style="line;strokeWidth=2;html=1;" vertex="1" parent="1">
          <mxGeometry x="390" y="1170" width="160" height="10" as="geometry" />
        </mxCell>
        <mxCell id="XsLnpEFhyd-dqSqakE4T-50" style="edgeStyle=orthogonalEdgeStyle;rounded=0;orthogonalLoop=1;jettySize=auto;html=1;exitX=0.5;exitY=1;exitDx=0;exitDy=0;entryX=0;entryY=0.5;entryDx=0;entryDy=0;" edge="1" parent="1" source="XsLnpEFhyd-dqSqakE4T-45" target="XsLnpEFhyd-dqSqakE4T-49">
          <mxGeometry relative="1" as="geometry" />
        </mxCell>
        <mxCell id="XsLnpEFhyd-dqSqakE4T-45" value="Update Course Seats" style="rounded=1;whiteSpace=wrap;html=1;" vertex="1" parent="1">
          <mxGeometry x="300" y="1240" width="120" height="60" as="geometry" />
        </mxCell>
        <mxCell id="XsLnpEFhyd-dqSqakE4T-51" style="edgeStyle=orthogonalEdgeStyle;rounded=0;orthogonalLoop=1;jettySize=auto;html=1;exitX=0.5;exitY=1;exitDx=0;exitDy=0;" edge="1" parent="1" source="XsLnpEFhyd-dqSqakE4T-46">
          <mxGeometry relative="1" as="geometry">
            <mxPoint x="480" y="1380" as="targetPoint" />
            <Array as="points">
              <mxPoint x="590" y="1340" />
              <mxPoint x="481" y="1340" />
            </Array>
          </mxGeometry>
        </mxCell>
        <mxCell id="XsLnpEFhyd-dqSqakE4T-46" value="Update Schedule" style="rounded=1;whiteSpace=wrap;html=1;" vertex="1" parent="1">
          <mxGeometry x="530" y="1240" width="120" height="60" as="geometry" />
        </mxCell>
        <mxCell id="XsLnpEFhyd-dqSqakE4T-49" value="" style="shape=ellipse;fillColor=#0065FF;strokeColor=none;html=1;sketch=0;" vertex="1" parent="1">
          <mxGeometry x="475" y="1370" width="10" height="10" as="geometry" />
        </mxCell>
      </root>
    </mxGraphModel>
  </diagram>
</mxfile>
